<svg xmlns="http://www.w3.org/2000/svg" height="200" width="200">
    <path d="M160.55476 105.43125c-2.4125 12.40625-21.5975 25.9825-43.63375 28.61375-11.49125 1.3725-22.80375 2.63125-34.8675 2.07875-19.73-.90375-35.2975-4.71-35.2975-4.71 0 1.92125.11875 3.75.355 5.46 2.565 19.47 19.3075 20.6375 35.16625 21.18125 16.00625.5475 30.2575-3.9475 30.2575-3.9475l.65875 14.4725s-11.19625 6.01125-31.14 7.11625c-10.99875.605-24.65375-.27625-40.56-4.485C6.99851 162.08 1.06601 125.31.15851 88-.11899 76.9225.05226 66.47625.05226 57.74125c0-38.1525 24.99625-49.335 24.99625-49.335C37.65226 2.6175 59.27976.18375 81.76351 0h.5525c22.48375.18375 44.125 2.6175 56.72875 8.40625 0 0 24.99625 11.1825 24.99625 49.335 0 0 .3125 28.1475-3.48625 47.69" fill="#3088d4"/>
    <path d="M34.65751 48.494c0-5.55375 4.5025-10.055 10.055-10.055 5.55375 0 10.055 4.50125 10.055 10.055 0 5.5525-4.50125 10.055-10.055 10.055-5.5525 0-10.055-4.5025-10.055-10.055M178.86476" fill="#fff"/>
    <g font-family="sans-serif" font-size="120">
        <text x="60" y="110" fill="white">m</text>
    </g>

    <path d="M0   0 L80   0 L80  85 L0  85" transform="translate(168 45) rotate(40)" style="fill: rgba(40,0,0,0.9)" />
    <path d="M0  90 L80  90 L80 130 L0 130" transform="translate(168 45) rotate(40)" style="fill: rgba(40,0,0,0.9)" />

    <circle cx="70" cy="20" r="15" style="stroke: black; stroke-width: 10; fill: rgba(0,0,0,0)" />
    <path d="M70 30 L70 65 L90 72 L80 30" style="fill: rgba(0,0,0,1)" />
    <path d="M80 95 Q110 180, 120 190 Q130 190, 130 175 L100 103" style="fill: black" />

    <circle cx="20" cy="90" r="15" style="stroke: black; stroke-width: 10; fill: rgba(0,0,0,0)" />
    <path d="M30 90 Q70 80, 70 70 L190 110 Q200 120, 160 120 L80 92 L30 100" style="fill: black" />

</svg>
